<svg xmlns="http://www.w3.org/2000/svg" xmlns:xlink="http://www.w3.org/1999/xlink" style="display: none;" >

<symbol viewBox="0 0 1920 1280" id="gamepad" xmlns="http://www.w3.org/2000/svg"><path d="M832 832V704q0-14-9-23t-23-9H608V480q0-14-9-23t-23-9H448q-14 0-23 9t-9 23v192H224q-14 0-23 9t-9 23v128q0 14 9 23t23 9h192v192q0 14 9 23t23 9h128q14 0 23-9t9-23V864h192q14 0 23-9t9-23zm576 64q0-53-37.5-90.5T1280 768t-90.5 37.5T1152 896t37.5 90.5 90.5 37.5 90.5-37.5T1408 896zm256-256q0-53-37.5-90.5T1536 512t-90.5 37.5T1408 640t37.5 90.5T1536 768t90.5-37.5T1664 640zm256 128q0 212-150 362t-362 150q-192 0-338-128H850q-146 128-338 128-212 0-362-150T0 768t150-362 362-150h896q212 0 362 150t150 362z"/>
</symbol>

<symbol viewBox="0 0 496 512" id="laugh-walk" ><path  d="M248 8C111 8 0 119 0 256s111 248 248 248 248-111 248-248S385 8 248 8zm20.1 198.1c4-25.2 34.2-42.1 59.9-42.1s55.9 16.9 59.9 42.1c1.7 11.1-11.4 18.3-19.8 10.8l-9.5-8.5c-14.8-13.2-46.2-13.2-61 0L288 217c-8.4 7.4-21.6.3-19.9-10.9zM168 160c17.7 0 32 14.3 32 32s-14.3 32-32 32-32-14.3-32-32 14.3-32 32-32zm230.9 146C390 377 329.4 432 256 432h-16c-73.4 0-134-55-142.9-126-1.2-9.5 6.3-18 15.9-18h270c9.6 0 17.1 8.4 15.9 18z"/>
</symbol>

<symbol viewBox="0 0 2304 1536" id="visa" xmlns="http://www.w3.org/2000/svg"><path d="M1975 862h-138q14-37 66-179l3-9q4-10 10-26t9-26l12 55zM531 797l-58-295q-11-54-75-54H130l-2 13q311 79 403 336zm179-349L548 886l-17-89q-26-70-85-129.5T315 579l135 510h175l261-641H710zm139 642h166l104-642H953zm768-626q-69-27-149-27-123 0-201 59t-79 153q-1 102 145 174 48 23 67 41t19 39q0 30-30 46t-69 16q-86 0-156-33l-22-11-23 144q74 34 185 34 130 1 208.5-59t80.5-160q0-106-140-174-49-25-71-42t-22-38q0-22 24.5-38.5T1455 571q70-1 124 24l15 8zm425-16h-128q-65 0-87 54l-246 588h174l35-96h212q5 22 20 96h154zm262-320v1280q0 52-38 90t-90 38H128q-52 0-90-38t-38-90V128q0-52 38-90t90-38h2048q52 0 90 38t38 90z"/></symbol>



    <!-- <view id="laugh-walk-view" viewBox="0 0 496 512" /> -->

</svg>