<?xml version="1.0" standalone="no"?>
<!DOCTYPE svg PUBLIC "-//W3C//DTD SVG 20010904//EN"
 "http://www.w3.org/TR/2001/REC-SVG-20010904/DTD/svg10.dtd">
<svg version="1.0" xmlns="http://www.w3.org/2000/svg"
 width="700.000000pt" height="700.000000pt" viewBox="0 0 700.000000 700.000000"
 preserveAspectRatio="xMidYMid meet">
<metadata>
Created by potrace 1.11, written by Peter Selinger 2001-2013
</metadata>
<g transform="translate(0.000000,700.000000) scale(0.100000,-0.100000)"
fill="#000000" stroke="none">
<path d="M687 6623 c-4 -3 -7 -295 -7 -649 l0 -642 134 58 c348 153 558 200
893 200 285 0 541 -34 872 -116 561 -138 1135 -382 1717 -730 l191 -114 110 0
110 0 -19 108 c-44 248 -141 594 -235 837 -60 154 -178 385 -261 510 -223 336
-453 507 -721 536 -98 10 -2774 13 -2784 2z"/>
<path d="M3937 6546 c178 -134 380 -404 520 -696 321 -669 488 -1584 465
-2545 l-4 -190 65 -77 65 -77 79 66 c124 104 470 457 567 578 342 427 519 834
503 1156 -7 136 -38 230 -119 364 -136 224 -294 420 -494 616 -463 451 -1016
731 -1669 844 l-39 7 61 -46z"/>
<path d="M1541 5469 c-246 -18 -435 -73 -758 -224 l-103 -48 0 -1080 0 -1079
86 113 c245 323 590 696 865 935 114 99 362 295 464 367 255 181 575 379 818
506 l137 73 0 87 0 87 -157 52 c-357 118 -736 195 -1041 212 -97 5 -181 9
-187 8 -5 0 -61 -5 -124 -9z"/>
<path d="M6306 4585 c-54 -461 -451 -1067 -1048 -1600 -401 -358 -786 -624
-1360 -939 l-68 -37 0 -109 0 -109 138 -45 c258 -84 529 -146 792 -183 177
-24 556 -24 695 1 280 50 497 164 615 324 58 78 190 340 248 492 221 573 269
1212 136 1805 -28 125 -93 348 -122 415 l-19 45 -7 -60z"/>
<path d="M1397 3699 c-166 -171 -535 -612 -671 -802 l-46 -65 0 -1221 0 -1221
1160 0 c638 0 1160 2 1160 4 0 2 -28 23 -62 47 -89 62 -229 199 -309 302 -295
380 -521 982 -638 1697 -61 374 -84 655 -85 1067 l-1 313 -195 0 -195 0 -118
-121z"/>
<path d="M2215 2369 c-44 -17 -81 -32 -82 -33 -5 -5 36 -204 73 -351 224 -907
651 -1513 1115 -1586 86 -13 302 -6 479 17 649 82 1226 350 1722 797 94 85
289 294 311 332 5 9 -12 6 -54 -11 -458 -186 -1217 -129 -2005 152 -469 166
-808 328 -1270 605 -99 60 -187 109 -195 108 -8 0 -50 -14 -94 -30z"/>
</g>
</svg>
